<?xml version="1.0" encoding="utf-8"?>
<!-- Generator: Adobe Illustrator 17.0.0, SVG Export Plug-In . SVG Version: 6.00 Build 0)  -->
<!DOCTYPE svg PUBLIC "-//W3C//DTD SVG 1.1//EN" "http://www.w3.org/Graphics/SVG/1.1/DTD/svg11.dtd">
<svg version="1.1" id="图层_1" xmlns="http://www.w3.org/2000/svg" xmlns:xlink="http://www.w3.org/1999/xlink" x="0px" y="0px"
	 width="49px" height="49px" viewBox="-0.5 -0.5 49 49" enable-background="new -0.5 -0.5 49 49" xml:space="preserve">
<path fill="#E23A00" d="M0,0h48v48H0V0z"/>
<path fill="#FFFFFF" d="M33.984,15.558c-0.169-0.155-0.351-0.324-0.559-0.519c-0.585-0.533-1.157-1.065-1.716-1.572
	c-0.065-0.051-0.065-0.051-0.13-0.117c-0.741-0.662-1.352-1.207-1.807-1.597c-0.26-0.221-0.481-0.39-0.624-0.506
	c-0.104-0.078-0.182-0.13-0.273-0.169c-0.033-0.016-0.064-0.03-0.096-0.041c-0.047-0.016-0.095-0.027-0.151-0.033
	C28.6,11.001,28.57,11,28.537,11c-0.034,0.001-0.068,0.005-0.101,0.011c-0.034,0.006-0.067,0.015-0.098,0.025
	c-0.264,0.089-0.451,0.332-0.451,0.626L28,18h6l-2-1v18l0,0H17c-1.079,0-2.113-0.169-2.113-1.247L15,12v1h14
	c-0.025-0.656,0.011-1.092-0.048-1.798c-0.004-0.053-0.155-0.166-0.155-0.166L13,11v23c0,1.792,2.043,3,3.837,3H34V16h-5
	l0.187,0.883v-5.195c0,0.351-0.286,0.624-0.624,0.637c-0.117,0-0.182-0.013-0.247-0.052c-0.013,0,0.026,0.013,0.065,0.039
	c0.117,0.091,0.312,0.233,0.546,0.441c0.442,0.377,1.04,0.909,1.768,1.559c0.065,0.051,0.065,0.051,0.13,0.116
	c0.546,0.494,1.131,1.026,1.703,1.559c0.208,0.182,0.39,0.363,0.559,0.519c0.104,0.091,0.169,0.156,0.208,0.195
	C33.555,16.948,34,17.328,34,17c-0.066-0.142,0.025-0.636,0-1C33.961,15.974,34.088,15.662,33.984,15.558L33.984,15.558z M14,23h-3
	v10.766h26V23H15l0,0H14L14,23z M18.163,30.779h3.952v1.026h-5.499v-0.831l3.822-5.52h-3.796v-1.039h5.356v0.806L18.163,30.779z
	 M24.572,31.805h-1.274v-7.39h1.274V31.805L24.572,31.805z M27.432,29.065v2.74h-1.287v-7.39h2.834c0.832,0,1.482,0.221,1.963,0.65
	c0.481,0.428,0.728,1,0.728,1.701c0,0.727-0.234,1.286-0.715,1.688c-0.481,0.403-1.144,0.598-2.002,0.598h-1.521V29.065z
	 M27.432,28.026h1.547c0.455,0,0.806-0.104,1.04-0.325c0.234-0.221,0.364-0.519,0.364-0.935c0-0.402-0.117-0.714-0.364-0.961
	c-0.247-0.234-0.585-0.364-1.001-0.364h-1.573v2.585H27.432z"/>
</svg>
